<?xml version="1.0" encoding="iso-8859-1"?>
<!-- Generator: Adobe Illustrator 19.0.0, SVG Export Plug-In . SVG Version: 6.00 Build 0)  -->
<svg version="1.1" id="Capa_1" xmlns="http://www.w3.org/2000/svg" xmlns:xlink="http://www.w3.org/1999/xlink" x="0px" y="0px"
	 viewBox="0 0 463 463" style="enable-background:new 0 0 463 463;" xml:space="preserve">
<g>
	<path d="M412.145,86.709h-6.951V72.532c0-12.104-9.848-21.952-21.952-21.952h-81.053l-9.902-34.66
		C289.608,6.547,280.928,0,271.18,0h-79.36c-9.749,0-18.428,6.547-21.107,15.921l-9.902,34.66H79.758
		c-12.104,0-21.952,9.848-21.952,21.952v14.177h-6.951c-4.142,0-7.5,3.358-7.5,7.5s3.358,7.5,7.5,7.5h14.753L91.832,429.5
		c1.503,18.785,17.442,33.5,36.287,33.5h206.762c18.845,0,34.784-14.715,36.287-33.5l26.223-327.79h14.753
		c4.142,0,7.5-3.358,7.5-7.5S416.287,86.709,412.145,86.709z M185.136,20.042c0.848-2.969,3.597-5.042,6.684-5.042h79.36
		c3.087,0,5.836,2.073,6.684,5.042l8.725,30.539H176.411L185.136,20.042z M79.758,65.581h86.864c0.01,0,0.021,0,0.031,0h129.851
		c0.008,0,0.016,0.002,0.024,0.002c0.009,0,0.019-0.002,0.028-0.002h86.686c3.833,0,6.952,3.119,6.952,6.952v14.177H72.806V72.532
		C72.806,68.699,75.925,65.581,79.758,65.581z M356.216,428.303C355.332,439.348,345.961,448,334.881,448H128.119
		c-11.08,0-20.451-8.651-21.335-19.696L80.656,101.709h301.687L356.216,428.303z"/>
	<path d="M231.5,426.871c4.142,0,7.5-3.358,7.5-7.5V137.564c0-4.142-3.358-7.5-7.5-7.5s-7.5,3.358-7.5,7.5v281.806
		C224,423.513,227.358,426.871,231.5,426.871z"/>
	<path d="M158.978,419.755c0.206,4.006,3.518,7.116,7.484,7.116c0.129,0,0.26-0.003,0.391-0.01c4.137-0.212,7.318-3.738,7.106-7.875
		L159.506,137.18c-0.212-4.137-3.727-7.319-7.875-7.106c-4.137,0.212-7.318,3.738-7.106,7.875L158.978,419.755z"/>
	<path d="M296.147,426.861c0.131,0.007,0.261,0.01,0.391,0.01c3.966,0,7.278-3.11,7.484-7.116l14.452-281.806
		c0.212-4.137-2.969-7.662-7.106-7.875c-4.146-0.212-7.662,2.97-7.875,7.106l-14.452,281.806
		C288.83,423.123,292.011,426.648,296.147,426.861z"/>
</g>
<g>
</g>
<g>
</g>
<g>
</g>
<g>
</g>
<g>
</g>
<g>
</g>
<g>
</g>
<g>
</g>
<g>
</g>
<g>
</g>
<g>
</g>
<g>
</g>
<g>
</g>
<g>
</g>
<g>
</g>
</svg>
